<svg width="18" height="18" viewBox="0 0 18 18" fill="none" xmlns="http://www.w3.org/2000/svg">
<path d="M9.2627 2.19821C9.5394 2.08088 9.85973 2.14003 10.0762 2.3486L16.2988 8.3486C16.4453 8.48989 16.5273 8.68516 16.5273 8.88864C16.5273 9.09216 16.4452 9.28735 16.2988 9.42868L10.0762 15.4287C9.85971 15.6374 9.53947 15.6965 9.2627 15.5791C8.98584 15.4614 8.80566 15.1895 8.80566 14.8886V12.083H5.33301C4.14883 12.083 3.55365 12.4231 3.23633 12.7929C2.94226 13.136 2.7902 13.6162 2.75684 14.1914L2.75 14.4443L2.74609 14.5205C2.70787 14.8989 2.38846 15.1943 2 15.1943C1.58582 15.1943 1.25006 14.8585 1.25 14.4443V12.4443C1.25004 10.1287 1.76958 8.36942 3.05566 7.21872C4.32137 6.08636 6.16665 5.69432 8.44434 5.6943H8.80566V2.88864C8.80576 2.58787 8.98586 2.31584 9.2627 2.19821ZM10.3057 6.4443C10.3056 6.85843 9.96979 7.19425 9.55566 7.1943H8.44434C6.27789 7.19432 4.90104 7.58057 4.05566 8.33688C3.40656 8.91776 2.97172 9.81007 2.81543 11.2011C3.45822 10.7985 4.29486 10.583 5.33301 10.583H9.55566C9.96971 10.583 10.3055 10.919 10.3057 11.333V13.123L14.6963 8.88864L10.3057 4.65329V6.4443Z" fill="#454447"/>
</svg>
