<svg width="18" height="18" viewBox="0 0 18 18" fill="none" xmlns="http://www.w3.org/2000/svg">
<path d="M8.88898 12.8892C9.74804 12.8892 10.4446 13.5858 10.4446 14.4448C10.4445 15.3037 9.74793 16.0004 8.88898 16.0005C8.02998 16.0005 7.33349 15.3038 7.33331 14.4448C7.33331 13.5857 8.02987 12.8892 8.88898 12.8892ZM8.88898 7.3335C9.74804 7.33355 10.4446 8.03009 10.4446 8.88916C10.4445 9.74813 9.74796 10.4448 8.88898 10.4448C8.02994 10.4448 7.33343 9.74817 7.33331 8.88916C7.33331 8.03005 8.02987 7.3335 8.88898 7.3335ZM8.88898 1.77783C9.74804 1.77789 10.4446 2.47442 10.4446 3.3335C10.4446 4.19252 9.748 4.8891 8.88898 4.88916C8.0299 4.88916 7.33337 4.19256 7.33331 3.3335C7.33331 2.47439 8.02987 1.77783 8.88898 1.77783Z" fill="#454447"/>
</svg>
