<svg width="18" height="18" viewBox="0 0 18 18" fill="none" xmlns="http://www.w3.org/2000/svg">
<path d="M11.333 1.25C12.8518 1.25 14.083 2.48122 14.083 4V15.0146C14.083 16.1282 12.7367 16.6867 11.9492 15.8994L8.88867 12.8389L5.82812 15.8994C5.04062 16.6864 3.69434 16.1281 3.69434 15.0146V4C3.69434 2.48125 4.9256 1.25006 6.44434 1.25H11.333ZM6.44434 2.75C5.75403 2.75006 5.19434 3.30968 5.19434 4V14.4111L8.28809 11.3184L8.35254 11.2598C8.66401 11.0059 9.11327 11.006 9.4248 11.2598L9.49023 11.3184L12.583 14.4111V4C12.583 3.30964 12.0234 2.75 11.333 2.75H6.44434Z" fill="#454447"/>
</svg>
